# Blender 4.0.2
# www.blender.org
mtllib key.mtl
o Circle
v 0.000000 0.259389 -1.000000
v -0.382683 0.259389 -0.923880
v -0.707107 0.259389 -0.707107
v -0.949253 0.259389 -0.343121
v -0.949253 0.259389 0.382683
v -0.707107 0.259389 0.707107
v -0.382683 0.259389 0.923880
v 0.000000 0.259389 1.000000
v 0.382684 0.259389 0.923880
v 0.707107 0.259389 0.707107
v 0.923879 0.259389 0.382683
v 1.000000 0.259389 0.000000
v 0.923879 0.259389 -0.382683
v 0.707107 0.259389 -0.707107
v 0.382684 0.259389 -0.923880
v 0.650587 0.259389 -0.221967
v 0.565644 0.259389 -0.205071
v 0.493632 0.259389 -0.156955
v 0.445516 0.259389 -0.084943
v 0.428620 0.259389 0.000000
v 0.445516 0.259389 0.084943
v 0.493632 0.259389 0.156955
v 0.565644 0.259389 0.205071
v 0.650587 0.259389 0.221967
v 0.735530 0.259389 0.205071
v 0.807542 0.259389 0.156955
v 0.855658 0.259389 0.084943
v 0.872554 0.259389 0.000000
v 0.855658 0.259389 -0.084943
v 0.807542 0.259389 -0.156955
v 0.735530 0.259389 -0.205071
v -3.430060 0.259389 -0.178423
v -3.430060 0.259389 0.382683
v -1.224898 0.259389 0.382683
v -1.500544 0.259389 0.382683
v -1.776189 0.259389 0.382683
v -2.051834 0.259389 0.382683
v -2.327479 0.259389 0.382683
v -2.603125 0.259389 0.382683
v -2.878770 0.259389 0.382683
v -3.154415 0.259389 0.382683
v -3.154415 0.259389 -0.381295
v -2.878770 0.259389 -0.178423
v -2.603125 0.259389 -0.406242
v -2.327479 0.259090 -0.178423
v -2.051834 0.259389 -0.459645
v -1.776189 0.259389 -0.482909
v -1.500544 0.259389 -0.256083
v -1.224898 0.259389 -0.542200
v -1.084853 0.259389 -0.542200
v -1.084853 0.259389 0.382683
v -1.914011 0.259389 0.382683
v -1.914011 0.259389 -0.326369
v -0.949253 0.259389 0.078159
v -0.949253 0.259389 -0.078159
v -0.901013 0.259389 0.000000
v -0.949253 0.192572 0.000000
v -3.584784 0.259389 -0.078159
v -3.615386 0.259389 0.078159
v -3.642117 0.192572 0.000000
v -3.154415 0.259389 -0.078159
v -3.154415 0.259389 0.078159
v -3.154415 0.192572 0.000000
v -2.878770 0.259389 -0.078159
v -2.878770 0.259389 0.078159
v -2.878770 0.192572 0.000000
v -2.603125 0.259389 -0.078159
v -2.603125 0.259389 0.078159
v -2.603125 0.192572 0.000000
v -2.327479 0.259308 -0.078159
v -2.327479 0.259389 0.078159
v -2.327479 0.192548 0.000000
v -2.051834 0.259389 -0.078159
v -2.051834 0.259389 0.078159
v -2.051834 0.192572 0.000000
v -1.776189 0.259389 -0.078159
v -1.776189 0.259389 0.078159
v -1.776189 0.192572 0.000000
v -1.500544 0.259389 -0.078159
v -1.500544 0.259389 0.078159
v -1.500544 0.192572 0.000000
v -1.224898 0.259389 -0.078159
v -1.224898 0.259389 0.078159
v -1.224898 0.192572 0.000000
v -1.084853 0.259389 0.078159
v -1.084853 0.259389 -0.078159
v -1.084853 0.192572 0.000000
v -1.914011 0.259389 0.078159
v -1.914011 0.259389 -0.078159
v -1.914011 0.192572 0.000000
v 0.000000 0.014443 -1.000000
v -0.382683 0.014443 -0.923880
v -0.707107 0.014443 -0.707107
v -0.949253 0.014443 -0.343121
v -0.949253 0.014443 0.382683
v -0.707107 0.014443 0.707107
v -0.382683 0.014443 0.923880
v 0.000000 0.014443 1.000000
v 0.382684 0.014443 0.923880
v 0.707107 0.014443 0.707107
v 0.923879 0.014443 0.382683
v 1.000000 0.014443 0.000000
v 0.923879 0.014443 -0.382683
v 0.707107 0.014443 -0.707107
v 0.382684 0.014443 -0.923880
v 0.650587 0.014443 -0.221967
v 0.565644 0.014443 -0.205071
v 0.493632 0.014443 -0.156955
v 0.445516 0.014443 -0.084943
v 0.428620 0.014443 0.000000
v 0.445516 0.014443 0.084943
v 0.493632 0.014443 0.156955
v 0.565644 0.014443 0.205071
v 0.650587 0.014443 0.221967
v 0.735530 0.014443 0.205071
v 0.807542 0.014443 0.156955
v 0.855658 0.014443 0.084943
v 0.872554 0.014443 0.000000
v 0.855658 0.014443 -0.084943
v 0.807542 0.014443 -0.156955
v 0.735530 0.014443 -0.205071
v -3.430060 0.014443 -0.178423
v -3.430060 0.014443 0.382683
v -1.224898 0.014443 0.382683
v -1.500544 0.014443 0.382683
v -1.776189 0.014443 0.382683
v -2.051834 0.014443 0.382683
v -2.327479 0.014443 0.382683
v -2.603125 0.014443 0.382683
v -2.878770 0.014443 0.382683
v -3.154415 0.014443 0.382683
v -3.154415 0.014443 -0.381295
v -2.878770 0.014443 -0.178423
v -2.603125 0.014443 -0.406242
v -2.327479 0.014743 -0.178423
v -2.051834 0.014443 -0.459645
v -1.776189 0.014443 -0.482909
v -1.500544 0.014443 -0.256083
v -1.224898 0.014443 -0.542200
v -1.084853 0.014443 -0.542200
v -1.084853 0.014443 0.382683
v -1.914011 0.014443 0.382683
v -1.914011 0.014443 -0.326369
v -0.949253 0.014443 0.078159
v -0.949253 0.014443 -0.078159
v -0.901013 0.014443 0.000000
v -0.949253 0.081260 0.000000
v -3.584784 0.014443 -0.078159
v -3.615386 0.014443 0.078159
v -3.642117 0.081260 0.000000
v -3.154415 0.014443 -0.078159
v -3.154415 0.014443 0.078159
v -3.154415 0.081260 0.000000
v -2.878770 0.014443 -0.078159
v -2.878770 0.014443 0.078159
v -2.878770 0.081260 0.000000
v -2.603125 0.014443 -0.078159
v -2.603125 0.014443 0.078159
v -2.603125 0.081260 0.000000
v -2.327479 0.014524 -0.078159
v -2.327479 0.014443 0.078159
v -2.327479 0.081285 0.000000
v -2.051834 0.014443 -0.078159
v -2.051834 0.014443 0.078159
v -2.051834 0.081260 0.000000
v -1.776189 0.014443 -0.078159
v -1.776189 0.014443 0.078159
v -1.776189 0.081260 0.000000
v -1.500544 0.014443 -0.078159
v -1.500544 0.014443 0.078159
v -1.500544 0.081260 0.000000
v -1.224898 0.014443 -0.078159
v -1.224898 0.014443 0.078159
v -1.224898 0.081260 0.000000
v -1.084853 0.014443 0.078159
v -1.084853 0.014443 -0.078159
v -1.084853 0.081260 0.000000
v -1.914011 0.014443 0.078159
v -1.914011 0.014443 -0.078159
v -1.914011 0.081260 0.000000
vn -0.0000 1.0000 -0.0000
vn -0.0005 1.0000 -0.0002
vn -0.0000 1.0000 -0.0005
vn 0.0005 1.0000 -0.0003
vn -0.0000 0.7601 0.6498
vn -0.0000 0.7601 -0.6498
vn 0.0001 0.7602 0.6497
vn -0.0000 0.7602 0.6496
vn -0.0000 0.7600 -0.6499
vn -0.0001 0.7602 0.6497
vn -0.8108 0.5854 -0.0000
vn -0.8924 -0.0000 0.4513
vn -0.9462 -0.0000 0.3236
vn -0.6884 -0.0000 0.7253
vn -0.8014 -0.0000 0.5981
vn -0.7078 -0.0000 -0.7064
vn -0.3827 -0.0000 -0.9239
vn -0.0000 -0.0000 1.0000
vn -0.0000 -0.0000 -1.0000
vn 0.3827 -0.0000 -0.9239
vn 0.7071 -0.0000 -0.7071
vn 0.9239 -0.0000 -0.3827
vn 1.0000 -0.0000 -0.0000
vn 0.9239 -0.0000 0.3827
vn 0.7071 -0.0000 0.7071
vn -0.8542 -0.0000 0.5199
vn 0.3827 -0.0000 0.9239
vn 0.6371 -0.0000 -0.7708
vn -0.3827 -0.0000 0.9239
vn -0.6371 -0.0000 -0.7708
vn -0.7071 -0.0000 0.7071
vn 0.5928 -0.0000 -0.8054
vn -0.9239 -0.0000 0.3827
vn -1.0000 -0.0000 -0.0000
vn -0.9239 -0.0000 -0.3827
vn -0.7071 -0.0000 -0.7071
vn -0.8326 -0.0000 -0.5539
vn 0.8265 -0.0000 -0.5630
vn -0.7202 -0.0000 -0.6938
vn -0.5685 -0.0000 -0.8227
vn -0.5928 -0.0000 -0.8054
vn -0.6540 -0.0000 -0.7565
vn 0.6354 -0.0000 -0.7722
vn -0.7506 -0.0000 -0.6608
vn 0.6952 -0.0000 -0.7189
vn -0.7142 -0.0000 -0.7000
vn -0.0000 -1.0000 -0.0000
vn -0.0005 -1.0000 -0.0002
vn -0.0000 -1.0000 -0.0005
vn 0.0005 -1.0000 -0.0003
vn -0.0000 -0.7601 0.6498
vn -0.0000 -0.7601 -0.6498
vn 0.0001 -0.7602 0.6497
vn -0.0000 -0.7602 0.6496
vn -0.0000 -0.7600 -0.6499
vn -0.0001 -0.7602 0.6497
vn -0.8108 -0.5854 -0.0000
vn -0.8063 -0.0000 -0.5915
vt 0.000000 0.000000
s 1
usemtl Key
f 54/1/1 85/1/1 51/1/1 5/1/1
f 65/1/1 62/1/1 41/1/1 40/1/1
f 85/1/1 83/1/1 34/1/1 51/1/1
f 50/1/1 49/1/1 82/1/1 86/1/1
f 77/1/1 88/1/1 52/1/1 36/1/1
f 88/1/1 74/1/1 37/1/1 52/1/1
f 53/1/1 46/1/2 73/1/2 89/1/1
f 74/1/1 71/1/1 38/1/1 37/1/1
f 71/1/1 68/1/1 39/1/1 38/1/1
f 68/1/1 65/1/1 40/1/1 39/1/1
f 49/1/1 48/1/1 79/1/1 82/1/1
f 48/1/1 47/1/1 76/1/1 79/1/1
f 47/1/1 53/1/1 89/1/1 76/1/1
f 46/1/2 45/1/3 70/1/3 73/1/2
f 45/1/3 44/1/4 67/1/4 70/1/3
f 44/1/4 43/1/1 64/1/1 67/1/4
f 43/1/1 42/1/1 61/1/1 64/1/1
f 12/1/1 13/1/1 29/1/1 28/1/1
f 9/1/1 23/1/1 22/1/1 8/1/1
f 83/1/1 80/1/1 35/1/1 34/1/1
f 80/1/1 77/1/1 36/1/1 35/1/1
f 42/1/1 32/1/1 58/1/1 61/1/1
f 62/1/1 59/1/1 33/1/1 41/1/1
f 86/1/5 87/1/5 57/1/5 55/1/5
f 87/1/6 85/1/6 54/1/6 57/1/6
f 58/1/5 60/1/5 63/1/5 61/1/5
f 60/1/6 59/1/6 62/1/6 63/1/6
f 61/1/5 63/1/5 66/1/5 64/1/5
f 63/1/6 62/1/6 65/1/6 66/1/6
f 64/1/5 66/1/5 69/1/7 67/1/7
f 66/1/6 65/1/6 68/1/6 69/1/6
f 67/1/7 69/1/7 72/1/8 70/1/8
f 69/1/6 68/1/6 71/1/9 72/1/9
f 70/1/8 72/1/8 75/1/10 73/1/10
f 72/1/9 71/1/9 74/1/6 75/1/6
f 89/1/5 90/1/5 78/1/5 76/1/5
f 90/1/6 88/1/6 77/1/6 78/1/6
f 76/1/5 78/1/5 81/1/5 79/1/5
f 78/1/6 77/1/6 80/1/6 81/1/6
f 79/1/5 81/1/5 84/1/5 82/1/5
f 81/1/6 80/1/6 83/1/6 84/1/6
f 82/1/5 84/1/5 87/1/5 86/1/5
f 84/1/6 83/1/6 85/1/6 87/1/6
f 73/1/10 75/1/10 90/1/5 89/1/5
f 75/1/6 74/1/6 88/1/6 90/1/6
f 4/1/1 50/1/1 86/1/1 55/1/1
f 57/1/11 54/1/11 56/1/11 55/1/11
f 19/1/1 3/1/1 56/1/1 20/1/1
f 4/1/1 55/1/1 56/1/1 3/1/1
f 6/1/1 7/1/1 21/1/1
f 19/1/1 18/1/1 1/1/1 2/1/1
f 10/1/1 24/1/1 23/1/1 9/1/1
f 17/1/1 16/1/1 14/1/1 15/1/1
f 5/1/1 6/1/1 56/1/1 54/1/1
f 13/1/1 31/1/1 30/1/1 29/1/1
f 12/1/1 28/1/1 27/1/1 11/1/1
f 10/1/1 11/1/1 25/1/1 24/1/1
f 31/1/1 13/1/1 14/1/1 16/1/1
f 15/1/1 1/1/1 18/1/1 17/1/1
f 2/1/1 3/1/1 19/1/1
f 11/1/1 27/1/1 26/1/1 25/1/1
f 22/1/1 21/1/1 7/1/1 8/1/1
f 56/1/1 6/1/1 21/1/1 20/1/1
f 149/1/12 59/1/12 60/1/13 150/1/13
f 96/1/14 6/1/14 5/1/15 95/1/15
f 93/1/16 3/1/16 2/1/17 92/1/17
f 95/1/18 5/1/18 51/1/18 141/1/18
f 92/1/17 2/1/17 1/1/19 91/1/19
f 91/1/19 1/1/19 15/1/20 105/1/20
f 105/1/20 15/1/20 14/1/21 104/1/21
f 104/1/21 14/1/21 13/1/22 103/1/22
f 103/1/22 13/1/22 12/1/23 102/1/23
f 102/1/23 12/1/23 11/1/24 101/1/24
f 101/1/24 11/1/24 10/1/25 100/1/25
f 131/1/18 41/1/18 33/1/18 123/1/18
f 123/1/26 33/1/26 59/1/12 149/1/12
f 100/1/25 10/1/25 9/1/27 99/1/27
f 99/1/27 9/1/27 8/1/18 98/1/18
f 134/1/28 44/1/28 45/1/28 135/1/28
f 121/1/29 31/1/29 16/1/18 106/1/18
f 133/1/30 43/1/30 44/1/30 134/1/30
f 120/1/31 30/1/31 31/1/29 121/1/29
f 132/1/32 42/1/32 43/1/32 133/1/32
f 119/1/33 29/1/33 30/1/31 120/1/31
f 118/1/34 28/1/34 29/1/33 119/1/33
f 130/1/18 40/1/18 41/1/18 131/1/18
f 117/1/35 27/1/35 28/1/34 118/1/34
f 129/1/18 39/1/18 40/1/18 130/1/18
f 116/1/36 26/1/36 27/1/35 117/1/35
f 128/1/18 38/1/18 39/1/18 129/1/18
f 115/1/17 25/1/17 26/1/36 116/1/36
f 127/1/18 37/1/18 38/1/18 128/1/18
f 142/1/18 52/1/18 37/1/18 127/1/18
f 114/1/19 24/1/19 25/1/17 115/1/17
f 126/1/18 36/1/18 52/1/18 142/1/18
f 113/1/20 23/1/20 24/1/19 114/1/19
f 125/1/18 35/1/18 36/1/18 126/1/18
f 112/1/21 22/1/21 23/1/20 113/1/20
f 124/1/18 34/1/18 35/1/18 125/1/18
f 141/1/18 51/1/18 34/1/18 124/1/18
f 111/1/22 21/1/22 22/1/21 112/1/21
f 110/1/23 20/1/23 21/1/22 111/1/22
f 109/1/24 19/1/24 20/1/23 110/1/23
f 108/1/25 18/1/25 19/1/24 109/1/24
f 107/1/27 17/1/27 18/1/25 108/1/25
f 106/1/18 16/1/18 17/1/27 107/1/27
f 94/1/37 4/1/37 3/1/16 93/1/16
f 140/1/38 50/1/38 4/1/38 94/1/38
f 139/1/19 49/1/19 50/1/19 140/1/19
f 138/1/39 48/1/39 49/1/39 139/1/39
f 122/1/40 32/1/40 42/1/41 132/1/41
f 148/1/42 58/1/42 32/1/40 122/1/40
f 137/1/43 47/1/43 48/1/43 138/1/43
f 143/1/44 53/1/44 47/1/44 137/1/44
f 97/1/29 7/1/29 6/1/14 96/1/14
f 98/1/18 8/1/18 7/1/29 97/1/29
f 136/1/45 46/1/45 53/1/45 143/1/45
f 135/1/46 45/1/46 46/1/46 136/1/46
f 144/1/47 95/1/47 141/1/47 175/1/47
f 155/1/47 130/1/47 131/1/47 152/1/47
f 175/1/47 141/1/47 124/1/47 173/1/47
f 140/1/47 176/1/47 172/1/47 139/1/47
f 167/1/47 126/1/47 142/1/47 178/1/47
f 178/1/47 142/1/47 127/1/47 164/1/47
f 143/1/47 179/1/47 163/1/48 136/1/48
f 164/1/47 127/1/47 128/1/47 161/1/47
f 161/1/47 128/1/47 129/1/47 158/1/47
f 158/1/47 129/1/47 130/1/47 155/1/47
f 139/1/47 172/1/47 169/1/47 138/1/47
f 138/1/47 169/1/47 166/1/47 137/1/47
f 137/1/47 166/1/47 179/1/47 143/1/47
f 136/1/48 163/1/48 160/1/49 135/1/49
f 135/1/49 160/1/49 157/1/50 134/1/50
f 134/1/50 157/1/50 154/1/47 133/1/47
f 133/1/47 154/1/47 151/1/47 132/1/47
f 102/1/47 118/1/47 119/1/47 103/1/47
f 99/1/47 98/1/47 112/1/47 113/1/47
f 173/1/47 124/1/47 125/1/47 170/1/47
f 170/1/47 125/1/47 126/1/47 167/1/47
f 132/1/47 151/1/47 148/1/47 122/1/47
f 152/1/47 131/1/47 123/1/47 149/1/47
f 176/1/51 145/1/51 147/1/51 177/1/51
f 177/1/52 147/1/52 144/1/52 175/1/52
f 148/1/51 151/1/51 153/1/51 150/1/51
f 150/1/52 153/1/52 152/1/52 149/1/52
f 151/1/51 154/1/51 156/1/51 153/1/51
f 153/1/52 156/1/52 155/1/52 152/1/52
f 154/1/51 157/1/53 159/1/53 156/1/51
f 156/1/52 159/1/52 158/1/52 155/1/52
f 157/1/53 160/1/54 162/1/54 159/1/53
f 159/1/52 162/1/55 161/1/55 158/1/52
f 160/1/54 163/1/56 165/1/56 162/1/54
f 162/1/55 165/1/52 164/1/52 161/1/55
f 179/1/51 166/1/51 168/1/51 180/1/51
f 180/1/52 168/1/52 167/1/52 178/1/52
f 166/1/51 169/1/51 171/1/51 168/1/51
f 168/1/52 171/1/52 170/1/52 167/1/52
f 169/1/51 172/1/51 174/1/51 171/1/51
f 171/1/52 174/1/52 173/1/52 170/1/52
f 172/1/51 176/1/51 177/1/51 174/1/51
f 174/1/52 177/1/52 175/1/52 173/1/52
f 163/1/56 179/1/51 180/1/51 165/1/56
f 165/1/52 180/1/52 178/1/52 164/1/52
f 94/1/47 145/1/47 176/1/47 140/1/47
f 147/1/57 145/1/57 146/1/57 144/1/57
f 109/1/47 110/1/47 146/1/47 93/1/47
f 94/1/47 93/1/47 146/1/47 145/1/47
f 96/1/47 111/1/47 97/1/47
f 109/1/47 92/1/47 91/1/47 108/1/47
f 100/1/47 99/1/47 113/1/47 114/1/47
f 107/1/47 105/1/47 104/1/47 106/1/47
f 95/1/47 144/1/47 146/1/47 96/1/47
f 103/1/47 119/1/47 120/1/47 121/1/47
f 102/1/47 101/1/47 117/1/47 118/1/47
f 100/1/47 114/1/47 115/1/47 101/1/47
f 121/1/47 106/1/47 104/1/47 103/1/47
f 105/1/47 107/1/47 108/1/47 91/1/47
f 92/1/47 109/1/47 93/1/47
f 101/1/47 115/1/47 116/1/47 117/1/47
f 112/1/47 98/1/47 97/1/47 111/1/47
f 146/1/47 110/1/47 111/1/47 96/1/47
f 150/1/58 60/1/58 58/1/42 148/1/42
